<svg xmlns="http://www.w3.org/2000/svg" height="40" viewBox="0 96 960 960" width="40"><path d="m729.334 905.333-58.667-58.666 61.334-62.334H567.667v-83.999h164.334l-61.334-61.667 58.667-58.666L892 742.667 729.334 905.333Zm-573.668-121q-35.5 0-59.75-24.25-24.25-24.249-24.25-59.749V290.999q0-34.833 24.25-59.416T155.667 207h529.335q34.833 0 59.416 24.583T769 290.999v206.668q-10.667-2.167-21.333-3.25-10.667-1.083-21-1.083-10.667 0-21 1.333l-20.666 2.667V348.999L416 538.666 155.666 349.999v350.335h325.668q-2 11-3 20.333-1 9.333-1 20.166 0 10.834 1.333 22Q480 774 482 784.333H155.666Zm60.999-493.334L416 435.334l205.001-144.335H216.665Zm-60.999 409.335V290.999v409.335Z"/></svg>